<?xml version="1.0" encoding="UTF-8"?>
<svg xmlns="http://www.w3.org/2000/svg" viewBox="0 0 512 256">
  <defs>
    <style>
      .cls-1, .cls-2 {
        fill: #fff;
      }

      .cls-2 {
        font-family: LeagueSpartan-Regular, 'LeagueSpartan Regular';
        font-size: 50px;
        font-variation-settings: ';
      }

      .cls-3 {
        letter-spacing: 0em;
      }

      .cls-4 {
        fill: none;
        stroke: #fff;
        stroke-miterlimit: 10;
        stroke-width: 2.19px;
      }

      .cls-5 {
        letter-spacing: 0em;
      }
    </style>
  </defs>
  <g id="Layer_2" data-name="Layer 2">
    <text class="cls-2" transform="translate(264.96 207.3)"><tspan class="cls-5" x="0" y="0">I</tspan><tspan class="cls-3" x="12.45" y="0">llinois</tspan></text>
    <g id="ACM">
      <path class="cls-1" d="M207.28,56.89h23.68l41.54,105.25h-25.43l-7.65-21.13h-40.51l-7.73,21.13h-25.52l41.62-105.25Zm-.4,63.23h24.64l-12.2-34.53h-.24l-12.2,34.53Z"/>
      <path class="cls-1" d="M331.99,140.46c4.89,0,9.34-.72,13.36-2.15,4.01-1.43,7-2.84,8.97-4.23l10.21,20.25c-2.5,2.13-6.77,4.28-12.8,6.46-6.04,2.18-13.2,3.27-21.49,3.27-7.76,0-15.04-1.36-21.85-4.07-6.8-2.71-12.8-6.53-17.98-11.44-5.18-4.92-9.25-10.68-12.2-17.3-2.95-6.62-4.43-13.81-4.43-21.57s1.46-14.98,4.38-21.65c2.92-6.67,6.98-12.48,12.16-17.42,5.18-4.94,11.19-8.78,18.02-11.52,6.83-2.74,14.12-4.11,21.89-4.11,8.29,0,15.45,1.09,21.49,3.27,6.03,2.18,10.3,4.33,12.8,6.46l-10.21,20.25c-1.97-1.44-4.96-2.86-8.97-4.27-4.01-1.41-8.47-2.11-13.36-2.11-5.42,0-10.15,.84-14.19,2.51-4.04,1.67-7.42,3.97-10.13,6.9-2.71,2.92-4.73,6.22-6.06,9.89-1.33,3.67-1.99,7.52-1.99,11.56s.67,7.99,1.99,11.68c1.33,3.7,3.35,7,6.06,9.93,2.71,2.92,6.09,5.22,10.13,6.9,4.04,1.68,8.77,2.51,14.19,2.51Z"/>
      <path class="cls-1" d="M491.14,56.89v105.25h-23.76v-61.95l1.04-17.62-4.07,20.17-17.7,50.95h-23.36l-17.62-50.95-3.99-20.17,1.04,17.62v61.95h-23.84V56.89h33.49l21.21,70.25,1.43,8.37,1.43-8.37,21.21-70.25h33.49Z"/>
    </g>
  </g>
  <g id="Diamond">
    <rect class="cls-4" x="46.94" y="75.32" width="88.01" height="88.01" transform="translate(-57.73 99.26) rotate(-45)"/>
    <rect class="cls-4" x="46.94" y="86.25" width="88.01" height="88.01" transform="translate(-65.47 102.46) rotate(-45)"/>
    <rect class="cls-4" x="46.94" y="97.19" width="88.01" height="88.01" transform="translate(-73.2 105.66) rotate(-45)"/>
  </g>
</svg>